<?xml version="1.0" encoding="UTF-8" standalone="no"?>
<!-- Created with Inkscape (http://www.inkscape.org/) -->

<svg
   xmlns:dc="http://purl.org/dc/elements/1.1/"
   xmlns:cc="http://creativecommons.org/ns#"
   xmlns:rdf="http://www.w3.org/1999/02/22-rdf-syntax-ns#"
   xmlns:svg="http://www.w3.org/2000/svg"
   xmlns="http://www.w3.org/2000/svg"
   xmlns:sodipodi="http://sodipodi.sourceforge.net/DTD/sodipodi-0.dtd"
   xmlns:inkscape="http://www.inkscape.org/namespaces/inkscape"
   width="200"
   height="200"
   id="svg3170"
   version="1.1"
   inkscape:version="0.48.4 r9939"
   sodipodi:docname="New document 1">
  <defs
     id="defs3172" />
  <sodipodi:namedview
     id="base"
     pagecolor="#ffffff"
     bordercolor="#666666"
     borderopacity="1.0"
     inkscape:pageopacity="0.0"
     inkscape:pageshadow="2"
     inkscape:zoom="0.98994949"
     inkscape:cx="364.89847"
     inkscape:cy="253.31973"
     inkscape:document-units="px"
     inkscape:current-layer="layer1"
     showgrid="false"
     inkscape:window-width="1920"
     inkscape:window-height="1014"
     inkscape:window-x="0"
     inkscape:window-y="27"
     inkscape:window-maximized="1" />
  <metadata
     id="metadata3175">
    <rdf:RDF>
      <cc:Work
         rdf:about="">
        <dc:format>image/svg+xml</dc:format>
        <dc:type
           rdf:resource="http://purl.org/dc/dcmitype/StillImage" />
        <dc:title></dc:title>
      </cc:Work>
    </rdf:RDF>
  </metadata>
  <g
     inkscape:label="Layer 1"
     inkscape:groupmode="layer"
     id="layer1"
     transform="translate(0,-852.36217)">
    <g
       id="g3507"
       transform="matrix(1.3513457,0,0,1.3513457,16.394958,-143.9037)">
      <g
         transform="matrix(-0.62919809,0.77724498,0.77724498,0.62919809,-468.78799,225.38261)"
         id="g3499">
        <path
           style="fill:none;stroke:#404040;stroke-width:4.79043102;stroke-linecap:round;stroke-linejoin:round;stroke-miterlimit:4;stroke-opacity:1;stroke-dasharray:none"
           d="m 95.848014,818.12431 c 7.991276,3.29559 19.775556,12.36441 22.583626,18.735"
           id="path3759-7-2"
           inkscape:connector-curvature="0"
           sodipodi:nodetypes="cc" />
        <path
           sodipodi:type="arc"
           style="fill:#fffb55;fill-opacity:1;fill-rule:nonzero;stroke:#404040;stroke-width:12;stroke-linecap:round;stroke-linejoin:round;stroke-miterlimit:4;stroke-opacity:1;stroke-dasharray:none;stroke-dashoffset:0"
           id="path4048-0-6"
           sodipodi:cx="301.42856"
           sodipodi:cy="628.79077"
           sodipodi:rx="7.1428571"
           sodipodi:ry="5"
           d="m 308.57142,628.79077 c 0,2.76143 -3.19797,5 -7.14286,5 -3.94489,0 -7.14286,-2.23857 -7.14286,-5 0,-2.76142 3.19797,-5 7.14286,-5 3.94489,0 7.14286,2.23858 7.14286,5 z"
           transform="matrix(-0.28842943,0.27599123,0.27599123,0.28842943,32.964329,573.04749)" />
      </g>
      <g
         transform="matrix(0.82633239,0.56318272,-0.56318272,0.82633239,489.95478,99.848295)"
         id="g3491">
        <path
           style="fill:none;stroke:#404040;stroke-width:4.79043102;stroke-linecap:round;stroke-linejoin:round;stroke-miterlimit:4;stroke-opacity:1;stroke-dasharray:none"
           d="m 74.492581,840.03167 c 1.994153,8.53343 9.75255,18.76792 15.253761,22.7456"
           id="path3759-3-4-1"
           inkscape:connector-curvature="0"
           sodipodi:nodetypes="cc" />
        <path
           transform="matrix(-0.31150713,0.24965176,0.24965176,0.31150713,27.122701,593.30532)"
           sodipodi:type="arc"
           style="fill:#fffb55;fill-opacity:1;fill-rule:nonzero;stroke:#404040;stroke-width:12;stroke-linecap:round;stroke-linejoin:round;stroke-miterlimit:4;stroke-opacity:1;stroke-dasharray:none;stroke-dashoffset:0"
           id="path4048-4-6-2"
           sodipodi:cx="301.42856"
           sodipodi:cy="628.79077"
           sodipodi:rx="7.1428571"
           sodipodi:ry="5"
           d="m 308.57142,628.79077 c 0,2.76143 -3.19797,5 -7.14286,5 -3.94489,0 -7.14286,-2.23857 -7.14286,-5 0,-2.76142 3.19797,-5 7.14286,-5 3.94489,0 7.14286,2.23858 7.14286,5 z" />
      </g>
      <path
         sodipodi:nodetypes="scs"
         inkscape:connector-curvature="0"
         id="path2989-7-0"
         d="m 63.872514,780.03211 c -51.676402,-27.93784 -35.995066,30.68486 -3.947192,35.85484 0,0 4.949208,-35.31312 3.947192,-35.85484 z"
         style="fill:#ffffff;fill-opacity:1;stroke:#404040;stroke-width:3.99202585;stroke-linecap:round;stroke-linejoin:round;stroke-miterlimit:4;stroke-opacity:1;stroke-dasharray:none" />
      <path
         transform="matrix(-0.28842943,0.27599123,0.43180117,0.45126133,-9.3788024,502.67101)"
         d="m 485.1646,450.93362 c 0,27.61424 -54.75891,50 -122.30745,50 -67.54855,0 -122.30746,-22.38576 -122.30746,-50 0,-27.61423 54.75891,-50 122.30746,-50 67.54854,0 122.30745,22.38577 122.30745,50 z"
         sodipodi:ry="50"
         sodipodi:rx="122.30746"
         sodipodi:cy="450.93362"
         sodipodi:cx="362.85715"
         id="path2985-2"
         style="fill:#fffb55;fill-opacity:1;fill-rule:nonzero;stroke:#404040;stroke-width:7.99476576;stroke-linecap:round;stroke-linejoin:round;stroke-miterlimit:4;stroke-opacity:1;stroke-dasharray:none;stroke-dashoffset:0"
         sodipodi:type="arc" />
      <path
         sodipodi:nodetypes="ccczcc"
         inkscape:connector-curvature="0"
         id="rect3786-9"
         d="m 100.64783,766.73164 c -6.092175,-0.072 -11.218836,-0.95389 -16.973135,2.08848 19.357735,3.98303 33.921465,22.54074 34.521295,35.95772 1.90501,-4.06834 2.88333,-5.77714 3.62434,-15.9626 0.74103,-10.18549 -8.18017,-21.48583 -21.17248,-22.08361 z"
         style="fill:#404040;fill-opacity:1;fill-rule:nonzero;stroke:#404040;stroke-width:3.6868031;stroke-linecap:round;stroke-linejoin:round;stroke-miterlimit:4;stroke-opacity:1;stroke-dasharray:none;stroke-dashoffset:0" />
      <path
         sodipodi:nodetypes="ccccc"
         inkscape:connector-curvature="0"
         id="rect3786-0-7"
         d="m 72.675924,775.03329 -5.056849,3.09234 c 18.103623,7.10965 38.631845,26.20815 41.342185,43.24561 1.40013,-1.59558 2.09278,-2.72501 3.77213,-5.64177 -7.40737,-19.03732 -20.393572,-31.08434 -40.057466,-40.69618 z"
         style="fill:#404040;fill-opacity:1;fill-rule:nonzero;stroke:#404040;stroke-width:3.9946394;stroke-linecap:round;stroke-linejoin:round;stroke-miterlimit:4;stroke-opacity:1;stroke-dashoffset:0" />
      <path
         sodipodi:nodetypes="ccccc"
         inkscape:connector-curvature="0"
         id="rect3786-0-2-4"
         d="m 57.743921,785.25726 -5.433087,6.29031 c 19.572454,7.38841 37.332953,28.2961 42.624799,42.98202 1.726409,-0.37968 3.876346,-2.99403 6.791857,-4.91059 -5.261624,-16.41913 -24.663134,-37.40955 -43.983569,-44.36174 z"
         style="fill:#404040;fill-opacity:1;fill-rule:nonzero;stroke:#404040;stroke-width:3.9946394;stroke-linecap:round;stroke-linejoin:round;stroke-miterlimit:4;stroke-opacity:1;stroke-dashoffset:0" />
      <path
         sodipodi:nodetypes="scs"
         inkscape:connector-curvature="0"
         id="path2989-3"
         d="M 77.037048,782.29954 C 49.946594,727.15096 28.924101,785.26135 52.749956,807.96869 52.693832,807.46588 77.282397,782.799 77.037048,782.29954 z"
         style="fill:#ffffff;fill-opacity:1;stroke:#404040;stroke-width:3.99202585;stroke-linecap:round;stroke-linejoin:round;stroke-miterlimit:4;stroke-opacity:1;stroke-dasharray:none" />
      <path
         sodipodi:nodetypes="ccscc"
         inkscape:connector-curvature="0"
         id="path3843-5"
         d="m 121.51044,747.44771 c -0.42873,8.89901 -0.42034,17.6369 -1.44584,26.82201 -0.29795,1.73305 -2.81784,2.40053 -5.22495,1.38407 -2.40713,-1.01649 -4.23497,-3.51996 -3.79003,-5.19093 1.71995,-4.31467 2.3093,-5.77487 10.46081,-23.01514 z"
         style="font-size:medium;font-style:normal;font-variant:normal;font-weight:normal;font-stretch:normal;text-indent:0;text-align:start;text-decoration:none;line-height:normal;letter-spacing:normal;word-spacing:normal;text-transform:none;direction:ltr;block-progression:tb;writing-mode:lr-tb;text-anchor:start;baseline-shift:baseline;color:#000000;fill:#404040;fill-opacity:1;stroke:none;stroke-width:10;marker:none;visibility:visible;display:inline;overflow:visible;enable-background:accumulate;font-family:Sans;-inkscape-font-specification:Sans" />
      <path
         sodipodi:nodetypes="ccccc"
         inkscape:connector-curvature="0"
         id="rect3786-0-4-1"
         d="m 47.219334,803.94137 -1.659301,1.6937 c 14.36623,8.45336 28.788649,22.82065 33.703013,36.91193 1.400132,-1.59557 1.809147,1.92793 3.488524,-0.98885 -8.762461,-15.78722 -19.004167,-28.07404 -35.532236,-37.61678 z"
         style="fill:#404040;fill-opacity:1;fill-rule:nonzero;stroke:#404040;stroke-width:3.9946394;stroke-linecap:round;stroke-linejoin:round;stroke-miterlimit:4;stroke-opacity:1;stroke-dashoffset:0" />
      <g
         transform="matrix(0.72788598,0.68569819,-0.68569819,0.72788598,593.17086,144.18044)"
         id="g3503">
        <path
           style="fill:none;stroke:#404040;stroke-width:4.79043102;stroke-linecap:round;stroke-linejoin:round;stroke-miterlimit:4;stroke-opacity:1;stroke-dasharray:none"
           d="m 111.89533,816.93571 c 7.99128,3.29561 19.77554,12.36442 22.58361,18.73501"
           id="path3759-2"
           inkscape:connector-curvature="0"
           sodipodi:nodetypes="cc" />
        <path
           sodipodi:type="arc"
           style="fill:#fffb55;fill-opacity:1;fill-rule:nonzero;stroke:#404040;stroke-width:12;stroke-linecap:round;stroke-linejoin:round;stroke-miterlimit:4;stroke-opacity:1;stroke-dasharray:none;stroke-dashoffset:0"
           id="path4048-7"
           sodipodi:cx="301.42856"
           sodipodi:cy="628.79077"
           sodipodi:rx="7.1428571"
           sodipodi:ry="5"
           d="m 308.57142,628.79077 c 0,2.76143 -3.19797,5 -7.14286,5 -3.94489,0 -7.14286,-2.23857 -7.14286,-5 0,-2.76142 3.19797,-5 7.14286,-5 3.94489,0 7.14286,2.23858 7.14286,5 z"
           transform="matrix(-0.28842943,0.27599123,0.27599123,0.28842943,49.01164,571.85889)" />
      </g>
      <g
         transform="matrix(-0.70644613,0.70776683,0.70776683,0.70644613,-447.87305,185.768)"
         id="g3495">
        <path
           style="fill:none;stroke:#404040;stroke-width:4.79043102;stroke-linecap:round;stroke-linejoin:round;stroke-miterlimit:4;stroke-opacity:1;stroke-dasharray:none"
           d="m 87.622133,841.19806 c 2.734348,8.32585 11.359822,17.84102 17.188467,21.32127"
           id="path3759-3-7"
           inkscape:connector-curvature="0"
           sodipodi:nodetypes="cc" />
        <path
           transform="matrix(-0.28842943,0.27599123,0.27599123,0.28842943,18.81176,599.57246)"
           sodipodi:type="arc"
           style="fill:#fffb55;fill-opacity:1;fill-rule:nonzero;stroke:#404040;stroke-width:12;stroke-linecap:round;stroke-linejoin:round;stroke-miterlimit:4;stroke-opacity:1;stroke-dasharray:none;stroke-dashoffset:0"
           id="path4048-4-9"
           sodipodi:cx="301.42856"
           sodipodi:cy="628.79077"
           sodipodi:rx="7.1428571"
           sodipodi:ry="5"
           d="m 308.57142,628.79077 c 0,2.76143 -3.19797,5 -7.14286,5 -3.94489,0 -7.14286,-2.23857 -7.14286,-5 0,-2.76142 3.19797,-5 7.14286,-5 3.94489,0 7.14286,2.23858 7.14286,5 z" />
      </g>
      <g
         transform="matrix(0.98356642,0.18054666,-0.18054666,0.98356642,151.1014,-3.8351805)"
         id="g3357">
        <path
           sodipodi:type="arc"
           style="fill:#fffb55;fill-opacity:1;fill-rule:nonzero;stroke:#404040;stroke-width:8.00813007;stroke-linecap:round;stroke-linejoin:round;stroke-miterlimit:4;stroke-opacity:1;stroke-dasharray:none;stroke-dashoffset:0"
           id="path2987-2"
           sodipodi:cx="544.28571"
           sodipodi:cy="435.21933"
           sodipodi:rx="52.857143"
           sodipodi:ry="57.142857"
           d="m 597.14285,435.21933 c 0,31.55913 -23.66495,57.14286 -52.85714,57.14286 -29.1922,0 -52.85715,-25.58373 -52.85715,-57.14286 0,-31.55913 23.66495,-57.14286 52.85715,-57.14286 29.19219,0 52.85714,25.58373 52.85714,57.14286 z"
           transform="matrix(-0.4338435,0.24551723,0.24551723,0.4338435,170.72522,520.50697)" />
        <path
           sodipodi:type="arc"
           style="fill:#ffffff;fill-opacity:1;fill-rule:nonzero;stroke:#404040;stroke-width:4.27065325;stroke-linecap:round;stroke-linejoin:round;stroke-miterlimit:4;stroke-opacity:1;stroke-dasharray:none;stroke-dashoffset:0"
           id="path3849-6"
           sodipodi:cx="461.78571"
           sodipodi:cy="437.71933"
           sodipodi:rx="11.785714"
           sodipodi:ry="6.0714288"
           d="m 473.57142,437.71933 c 0,3.35316 -5.27664,6.07143 -11.78571,6.07143 -6.50907,0 -11.78572,-2.71827 -11.78572,-6.07143 0,-3.35316 5.27665,-6.07143 11.78572,-6.07143 6.50907,0 11.78571,2.71827 11.78571,6.07143 z"
           transform="matrix(-0.39119166,-0.59386787,-1.0462261,0.64534034,687.23696,827.92795)" />
        <path
           style="fill:none;stroke:#404040;stroke-width:3.98797321;stroke-linecap:round;stroke-linejoin:round;stroke-miterlimit:4;stroke-opacity:1;stroke-dasharray:none"
           d="m 50.31865,839.54153 c -2.609397,-0.41732 -4.347868,-2.14916 -4.885514,-4.7756"
           id="path3906-4"
           inkscape:connector-curvature="0"
           sodipodi:nodetypes="cc" />
        <path
           style="fill:none;stroke:#404040;stroke-width:3.99202585;stroke-linecap:round;stroke-linejoin:round;stroke-miterlimit:4;stroke-opacity:1;stroke-dasharray:none"
           d="M 59.507419,846.93511 C 57.644147,861.7311 44.680251,866.23548 34.487855,861.2859"
           id="path4025-0"
           inkscape:connector-curvature="0"
           sodipodi:nodetypes="cc" />
        <path
           sodipodi:type="arc"
           style="fill:#ffffff;fill-opacity:1;fill-rule:nonzero;stroke:#404040;stroke-width:4.27065325;stroke-linecap:round;stroke-linejoin:round;stroke-miterlimit:4;stroke-opacity:1;stroke-dasharray:none;stroke-dashoffset:0"
           id="path3849-3-3"
           sodipodi:cx="461.78571"
           sodipodi:cy="437.71933"
           sodipodi:rx="11.785714"
           sodipodi:ry="6.0714288"
           d="m 473.57142,437.71933 c 0,3.35316 -5.27664,6.07143 -11.78571,6.07143 -6.50907,0 -11.78572,-2.71827 -11.78572,-6.07143 0,-3.35316 5.27665,-6.07143 11.78572,-6.07143 6.50907,0 11.78571,2.71827 11.78571,6.07143 z"
           transform="matrix(-0.39515845,-0.59123579,-1.0418825,0.65232968,668.54668,834.19089)" />
        <path
           style="fill:none;stroke:#404040;stroke-width:3.98797321;stroke-linecap:round;stroke-linejoin:round;stroke-miterlimit:4;stroke-opacity:1;stroke-dasharray:none"
           d="m 31.968154,849.73882 c -2.6414,-0.078 -4.588288,-1.57171 -5.459485,-4.10711"
           id="path3906-1-1"
           inkscape:connector-curvature="0"
           sodipodi:nodetypes="cc" />
        <path
           style="fill:none;stroke:#404040;stroke-width:3.99202585;stroke-linecap:round;stroke-linejoin:round;stroke-miterlimit:4;stroke-opacity:1;stroke-dasharray:none"
           d="m 29.314003,817.54405 c -2.72393,-5.8834 -3.975909,-17.68959 -1.509025,-23.63357"
           id="path3759-9-81"
           inkscape:connector-curvature="0"
           sodipodi:nodetypes="cc" />
        <path
           sodipodi:type="arc"
           style="fill:#fffb55;fill-opacity:1;fill-rule:nonzero;stroke:#404040;stroke-width:11.64743137;stroke-linecap:round;stroke-linejoin:round;stroke-miterlimit:4;stroke-opacity:1;stroke-dasharray:none;stroke-dashoffset:0"
           id="path4048-42-0"
           sodipodi:cx="301.42856"
           sodipodi:cy="628.79077"
           sodipodi:rx="7.1428571"
           sodipodi:ry="5"
           d="m 308.57142,628.79077 c 0,2.76143 -3.19797,5 -7.14286,5 -3.94489,0 -7.14286,-2.23857 -7.14286,-5 0,-2.76142 3.19797,-5 7.14286,-5 3.94489,0 7.14286,2.23858 7.14286,5 z"
           transform="matrix(0.67406361,-7.1611761e-5,0.4249306,-0.2839047,-436.77236,972.05468)" />
        <path
           style="fill:none;stroke:#404040;stroke-width:3.99202585;stroke-linecap:round;stroke-linejoin:round;stroke-miterlimit:4;stroke-opacity:1;stroke-dasharray:none"
           d="M 20.184546,821.96199 C 16.399269,816.69835 6.7323899,809.80595 0.34338963,809.03329"
           id="path3759-9-8-7"
           inkscape:connector-curvature="0"
           sodipodi:nodetypes="cc" />
        <path
           sodipodi:type="arc"
           style="fill:#fffb55;fill-opacity:1;fill-rule:nonzero;stroke:#404040;stroke-width:11.64743137;stroke-linecap:round;stroke-linejoin:round;stroke-miterlimit:4;stroke-opacity:1;stroke-dasharray:none;stroke-dashoffset:0"
           id="path4048-42-4-6"
           sodipodi:cx="301.42856"
           sodipodi:cy="628.79077"
           sodipodi:rx="7.1428571"
           sodipodi:ry="5"
           d="m 308.57142,628.79077 c 0,2.76143 -3.19797,5 -7.14286,5 -3.94489,0 -7.14286,-2.23857 -7.14286,-5 0,-2.76142 3.19797,-5 7.14286,-5 3.94489,0 7.14286,2.23858 7.14286,5 z"
           transform="matrix(-0.30401496,0.50087533,-0.47242147,0.1857669,386.07063,545.3895)" />
        <path
           style="fill:none;stroke:#404040;stroke-width:5.98803854;stroke-linecap:round;stroke-linejoin:round;stroke-miterlimit:4;stroke-opacity:1;stroke-dasharray:none"
           d="m 52.630653,815.73018 c -14.173969,1.22993 -34.534391,15.28464 -39.325996,23.15365"
           id="path4025-5-0"
           inkscape:connector-curvature="0"
           sodipodi:nodetypes="cc" />
        <path
           style="fill:#404040;fill-opacity:1;fill-rule:nonzero;stroke:#404040;stroke-width:0;stroke-linecap:round;stroke-linejoin:round;stroke-miterlimit:4;stroke-opacity:1;stroke-dasharray:none;stroke-dashoffset:0"
           d="m 40.719054,817.16755 c -1.008305,-1.78173 -5.839317,-1.93767 -11.801267,1.43627 -5.961953,3.37394 -10.085404,7.94204 -10.252485,11.69949"
           id="path4283-1"
           inkscape:connector-curvature="0"
           sodipodi:nodetypes="csc" />
      </g>
    </g>
  </g>
</svg>
