<?xml version="1.0" encoding="UTF-8" standalone="no"?>
<!-- Created with Inkscape (http://www.inkscape.org/) -->

<svg
   xmlns:dc="http://purl.org/dc/elements/1.1/"
   xmlns:cc="http://creativecommons.org/ns#"
   xmlns:rdf="http://www.w3.org/1999/02/22-rdf-syntax-ns#"
   xmlns:svg="http://www.w3.org/2000/svg"
   xmlns="http://www.w3.org/2000/svg"
   xmlns:sodipodi="http://sodipodi.sourceforge.net/DTD/sodipodi-0.dtd"
   xmlns:inkscape="http://www.inkscape.org/namespaces/inkscape"
   width="200"
   height="200"
   id="svg4589"
   version="1.1"
   inkscape:version="0.48.4 r9939"
   sodipodi:docname="New document 34">
  <defs
     id="defs4591" />
  <sodipodi:namedview
     id="base"
     pagecolor="#ffffff"
     bordercolor="#666666"
     borderopacity="1.0"
     inkscape:pageopacity="0.0"
     inkscape:pageshadow="2"
     inkscape:zoom="1"
     inkscape:cx="191"
     inkscape:cy="322"
     inkscape:document-units="px"
     inkscape:current-layer="layer1"
     showgrid="false"
     inkscape:window-width="1920"
     inkscape:window-height="1014"
     inkscape:window-x="0"
     inkscape:window-y="27"
     inkscape:window-maximized="1" />
  <metadata
     id="metadata4594">
    <rdf:RDF>
      <cc:Work
         rdf:about="">
        <dc:format>image/svg+xml</dc:format>
        <dc:type
           rdf:resource="http://purl.org/dc/dcmitype/StillImage" />
        <dc:title></dc:title>
      </cc:Work>
    </rdf:RDF>
  </metadata>
  <g
     inkscape:label="Layer 1"
     inkscape:groupmode="layer"
     id="layer1"
     transform="translate(0,-852.36218)">
    <g
       id="g5800"
       transform="matrix(10.542809,0,0,9.7374939,-4390.6977,-7574.2264)">
      <path
         sodipodi:nodetypes="ccccscc"
         inkscape:connector-curvature="0"
         id="path4176-4"
         d="m 421.42441,869.23421 c -3.23434,-2.07111 12.22808,-3.68124 12.69892,0.71728 -4.58574,-1.78847 -6.34967,8.22122 -8.04234,14.86765 l -2.48592,0.009 c 0.14646,-1.38983 -0.81059,-7.47087 -0.19257,-12.31145 0.49533,-3.87963 -0.52908,-3.90735 -2.57471,-3.17202 z"
         style="fill:#d9fa99;fill-opacity:1;stroke:none" />
      <path
         sodipodi:nodetypes="ccc"
         inkscape:connector-curvature="0"
         id="path4093-35"
         d="m 422.52146,884.41709 1.42271,-13.3562 c 0.29601,-1.91066 -0.30649,-3.05624 -3.34999,-2.12333"
         style="fill:none;stroke:#96c580;stroke-width:1;stroke-linecap:round;stroke-linejoin:miter;stroke-miterlimit:4;stroke-opacity:1;stroke-dasharray:none" />
      <path
         sodipodi:nodetypes="ccc"
         inkscape:connector-curvature="0"
         id="path4093-7-8"
         d="m 425.2927,884.62878 3.7601,-13.331 c 0.52134,-1.9621 1.98902,-2.75784 3.03106,-2.70356"
         style="fill:none;stroke:#96c580;stroke-width:1;stroke-linecap:round;stroke-linejoin:miter;stroke-miterlimit:4;stroke-opacity:1;stroke-dasharray:none" />
      <path
         sodipodi:nodetypes="ccc"
         inkscape:connector-curvature="0"
         id="path4093-3-8"
         d="m 423.08841,884.46551 2.28762,-12.54073 c 0.23424,-1.99132 -0.18453,-3.62319 -2.82495,-2.07498"
         style="fill:none;stroke:#96c580;stroke-width:1;stroke-linecap:round;stroke-linejoin:miter;stroke-miterlimit:4;stroke-opacity:1;stroke-dasharray:none" />
      <path
         sodipodi:nodetypes="ccc"
         inkscape:connector-curvature="0"
         id="path4093-7-3-1"
         d="m 425.71308,884.88091 4.67901,-13.26703 c 0.65676,-1.9536 2.15803,-2.37134 3.34476,-1.90558"
         style="fill:none;stroke:#96c580;stroke-width:1;stroke-linecap:round;stroke-linejoin:miter;stroke-miterlimit:4;stroke-opacity:1;stroke-dasharray:none" />
      <path
         sodipodi:nodetypes="ccc"
         inkscape:connector-curvature="0"
         id="path4093-8-1"
         d="m 423.44976,884.65899 3.32936,-13.32024 c 0.35616,-1.90037 -0.2099,-3.0644 -3.28132,-2.22799"
         style="fill:none;stroke:#96c580;stroke-width:1;stroke-linecap:round;stroke-linejoin:miter;stroke-miterlimit:4;stroke-opacity:1;stroke-dasharray:none" />
      <path
         sodipodi:nodetypes="cccc"
         inkscape:connector-curvature="0"
         id="path4156-1"
         d="m 429.17759,868.21495 c -0.44454,0.52407 -0.72912,0.9631 -0.81517,1.29657 l -4.03652,15.09821 0,0"
         style="fill:none;stroke:#96c580;stroke-width:1;stroke-linecap:round;stroke-linejoin:miter;stroke-miterlimit:4;stroke-opacity:1;stroke-dasharray:none" />
      <path
         sodipodi:nodetypes="csc"
         inkscape:connector-curvature="0"
         id="path5776"
         d="m 419.58911,885.05169 c 2.5121,-2.5284 8.26929,-1.78576 9.38382,0.0233 0.0517,0.084 -9.37031,-0.11036 -9.33939,-0.022"
         style="fill:#705f23;fill-opacity:1;stroke:#705f23;stroke-width:0.58232355;stroke-linecap:round;stroke-linejoin:miter;stroke-miterlimit:4;stroke-opacity:1;stroke-dasharray:none" />
      <path
         inkscape:connector-curvature="0"
         d="m 419.87837,867.78046 c -0.10404,0.002 0.15733,-0.0403 0.16242,-0.0584 0.009,-0.0323 -0.50107,0.104 0.11022,-0.0436 0.0625,0.007 -0.0141,-0.0333 0.009,-0.0416 0.13439,-0.0495 0.27705,-0.0676 0.41011,-0.12204 0.0507,-0.0326 0.25043,-0.0618 0.29076,-0.10218 0.0105,-0.01 -0.0569,-0.004 -0.0433,-0.01 0.34929,-0.15127 0.0902,0.008 0.22106,-0.0753 -0.0109,-0.004 -0.0436,-0.009 -0.0324,-0.0129 0.10171,-0.0319 0.20796,-0.0474 0.31101,-0.0747 0.0442,-0.012 0.0943,-0.0149 0.13051,-0.0428 0.017,-0.0132 -0.0775,0.008 -0.064,-0.009 0.0105,-0.0132 0.25282,-0.0856 0.26183,-0.0885 0.1012,0.0681 0.0679,-0.0506 0.10711,-0.0649 0.0788,-0.0289 0.16321,-0.0408 0.24248,-0.0686 0.0218,-0.008 0.0381,-0.0268 0.0589,-0.037 0.074,-0.0361 0.15189,-0.0636 0.22761,-0.0958 0.0291,-0.0154 0.0584,-0.0298 0.0876,-0.0447 -0.007,-0.0367 0.0973,-0.0553 0.10384,-0.0186 l 0,0 c -0.0322,0.0159 -0.0646,0.0309 -0.0969,0.0463 -0.0686,0.0214 -0.13707,0.0438 -0.20584,0.0649 -0.0744,0.0225 -0.15801,0.0253 -0.22355,0.067 -0.0303,0.0195 0.13381,-0.0179 0.10793,0.007 -0.23095,0.2245 -0.083,-0.0623 -0.28499,0.12197 -0.38816,0.10612 -0.0944,0.0178 -0.32446,0.0997 -0.012,0.004 -0.19341,0.0608 -0.21797,0.0975 -0.005,0.007 0.0131,0.0101 0.0196,0.0152 -0.0964,0.0234 -0.19385,0.0429 -0.28928,0.0699 -0.0518,0.0144 -0.0969,0.0607 -0.14937,0.0787 -0.045,0.0152 -0.0936,0.0208 -0.13667,0.0411 -0.008,0.003 0.0153,0.008 0.023,0.0125 -0.21617,0.0551 -0.42663,0.12703 -0.63625,0.20259 0.0739,-0.009 0.15475,-0.0598 0.22177,-0.0273 0.0573,0.0278 -0.12422,0.0284 -0.18578,0.0448 -0.0211,0.006 -0.0839,0.0171 -0.0623,0.0203 0.0385,0.006 0.0786,-0.0232 0.11602,-0.0127 0.0255,0.007 -0.12658,0.0135 -0.0755,0.0251 0.0123,0.0685 -0.18163,0.10326 -0.1939,0.0348 z"
         id="path5786"
         style="fill:#ff6600;fill-opacity:1;stroke:#e9921f;stroke-width:0.5;stroke-linecap:round;stroke-linejoin:round;stroke-miterlimit:4;stroke-opacity:1;stroke-dasharray:none" />
      <path
         transform="translate(0,680.31498)"
         inkscape:connector-curvature="0"
         d="m 423.21727,186.16513 c 0.0344,-0.002 0.0691,-0.002 0.10319,-0.007 0.004,-6.2e-4 -0.0121,-0.005 -0.009,-0.008 0.0124,-0.0131 0.0354,-0.008 0.0516,-0.0165 0.004,-0.002 0.004,-0.009 0.008,-0.009 0.0532,-0.006 0.10691,-0.006 0.16036,-0.01 -0.19603,-0.0235 -0.003,0.005 0.0225,-0.0192 0.0198,-0.0191 -0.10485,0.005 -0.082,-0.0105 0.032,-0.0214 0.0767,-0.006 0.11477,-0.0114 0.0161,-0.002 0.0316,-0.008 0.0473,-0.0119 0,-0.008 0.024,-0.008 0.024,0 l 0,0 c -0.51874,0.0292 -0.0946,-0.004 -0.0571,0.0233 0.0336,0.0243 -0.0836,10e-4 -0.12396,0.0105 -0.006,0.001 0.1032,0.017 0.002,0.0192 -0.0121,0.003 -0.0238,0.008 -0.0362,0.01 -0.0377,0.005 -0.0786,-0.005 -0.11373,0.009 -0.002,6.5e-4 0.12879,0.0155 0.13205,0.0165 0.004,0.001 -0.008,0.005 -0.0118,0.008 -0.0342,0.002 -0.0684,0.005 -0.10263,0.007 0,0.0456 -0.1289,0.0456 -0.1289,0 z"
         id="path5788"
         style="fill:#ff6600;fill-opacity:1;stroke:#e9921f;stroke-width:0.5;stroke-linecap:round;stroke-linejoin:round;stroke-miterlimit:4;stroke-opacity:1;stroke-dasharray:none" />
      <path
         transform="translate(0,680.31498)"
         inkscape:connector-curvature="0"
         d="m 425.24658,185.85822 c 0.0199,-4.6e-4 0.0794,0.002 0.0597,-10e-4 -0.0247,-0.004 -0.10026,-4.5e-4 -0.0752,-0.001 0.097,-0.003 0.19411,-0.001 0.29112,-0.005 0,-0.0228 0.0646,-0.0228 0.0646,0 l 0,0 c 0.0978,0.008 -0.26085,10e-4 -0.18667,0.003 0.0844,0.002 0.18801,3.1e-4 -0.048,0.002 -0.0509,4.7e-4 -0.10188,9.2e-4 -0.15282,0.001 0,-0.0167 0.0473,-0.0167 0.0473,0 z"
         id="path5790"
         style="fill:#ff6600;fill-opacity:1;stroke:#e9921f;stroke-width:0.5;stroke-linecap:round;stroke-linejoin:round;stroke-miterlimit:4;stroke-opacity:1;stroke-dasharray:none" />
      <path
         transform="translate(0,680.31498)"
         inkscape:connector-curvature="0"
         d="m 424.11635,185.92224 c 0.19731,0 0.39462,0 0.59193,0 0.12874,0 0.25747,0 0.38621,0 0,-0.003 0.009,-0.003 0.009,0 l 0,0 c -0.15923,0 -0.31845,0 -0.47767,0 -0.17378,0 -0.34757,0 -0.52135,0 0,-0.004 0.0122,-0.004 0.0122,0 z"
         id="path5792"
         style="fill:#ff6600;fill-opacity:1;stroke:#e9921f;stroke-width:0.5;stroke-linecap:round;stroke-linejoin:round;stroke-miterlimit:4;stroke-opacity:1;stroke-dasharray:none" />
      <path
         transform="translate(0,680.31498)"
         inkscape:connector-curvature="0"
         d="m 423.70095,186.54572 c -0.13581,-0.006 0.1003,0.005 0.11775,-0.004 0.0446,-0.0237 -0.20194,0.002 -0.15156,-0.002 0.41366,-0.0313 0.23836,0.0122 0.16496,-0.007 -0.15972,-0.0129 0.35723,0.007 0.19586,-0.006 -0.0388,-0.003 -0.15588,-9.9e-4 -0.11691,-0.002 0.24565,-0.007 0.35413,0.0151 0.25597,-0.004 0.10924,-0.008 0.2627,-0.003 0.42628,-0.009 0.0137,-5.7e-4 -0.0275,-0.001 -0.0412,-0.002 0.19559,-0.008 0.3923,0.002 0.58785,-0.008 0.018,-9.1e-4 -0.0361,-0.001 -0.0541,-0.002 0.21483,-0.004 0.42974,-0.004 0.64457,-0.007 0.0179,-2.8e-4 -0.0358,-9.3e-4 -0.0537,-0.001 0.2381,-0.002 0.47606,-0.006 0.71445,-0.008 0.24713,-0.004 0.4943,-4.6e-4 0.74143,8.2e-4 0.19294,0.006 0.38658,6.9e-4 0.57912,0.0163 0.11885,0.0277 0.24583,-0.008 0.36661,0.0108 0.005,7.5e-4 -0.0177,0.006 -0.0129,0.007 0.0626,0.005 0.12572,4.4e-4 0.18811,0.007 0.0163,0.002 -0.0323,0.005 -0.0485,0.008 0.0434,0.003 0.0868,0.006 0.13026,0.009 0.14107,0.008 0.28009,0.0226 0.42115,0.0313 0,0.007 -0.0185,0.007 -0.0185,0 l 0,0 c -0.12052,-0.0117 -0.24202,-0.0125 -0.36158,-0.0313 -0.0605,-0.003 -0.12104,-0.005 -0.18148,-0.009 -0.0251,-0.002 -0.0564,0.009 -0.075,-0.008 -0.0145,-0.0132 0.0781,-0.006 0.0585,-0.007 -0.17026,-0.01 -0.32758,-0.006 -0.49566,-0.0175 -0.19104,-0.007 -0.41091,-0.0141 -0.6005,-0.0163 0.0108,-3.5e-4 0.0433,-9.7e-4 0.0325,-0.001 -0.1961,-10e-4 -0.39239,-0.003 -0.58849,2.2e-4 -0.24632,0.002 -0.49267,0.004 -0.73869,0.008 -0.167,0.003 -0.33482,0.005 -0.50198,0.009 -0.0719,5.2e-4 -0.14382,6.2e-4 -0.21573,0.002 -0.0423,5.5e-4 -0.0845,0.002 -0.12676,0.003 -0.009,2.4e-4 -0.0371,0.001 -0.0278,0.002 0.0315,0.002 0.12599,0.001 0.0945,0.002 -0.0986,0.002 -0.19731,10e-4 -0.29597,0.002 0.0625,0.005 0.0266,0.001 -0.0989,0.004 -0.13404,0.002 -0.26786,0.008 -0.40194,0.008 0.0132,6.6e-4 0.0527,0.001 0.0395,0.002 -0.0552,0.003 -0.65385,0.01 -0.24108,0.0105 -0.0552,7.3e-4 -0.11049,0.001 -0.16572,0.002 -0.0164,3.3e-4 -0.0339,-0.004 -0.0491,0.002 -0.0118,0.005 0.0509,4.3e-4 0.0383,0.002 -0.22907,0.0321 0.0405,-0.0216 -0.0238,0.006 0,0.0389 -0.11008,0.0389 -0.11008,0 z"
         id="path5794"
         style="fill:#ff6600;fill-opacity:1;stroke:#e9921f;stroke-width:0.5;stroke-linecap:round;stroke-linejoin:round;stroke-miterlimit:4;stroke-opacity:1;stroke-dasharray:none" />
      <path
         transform="translate(0,680.31498)"
         inkscape:connector-curvature="0"
         d="m 429.70017,186.17376 c 0.15744,0.0128 -0.28543,-0.0224 0.20845,0.007 0.0898,0.005 -0.10615,0.001 -0.0435,0.0163 0.0275,0.007 0.0563,0.005 0.0845,0.007 0.0129,0.003 0.0518,0.006 0.0388,0.008 -0.0427,0.008 -0.0918,-0.0113 -0.12998,0.009 -0.0277,0.015 0.0626,0.007 0.094,0.0101 0.0165,0.001 0.15947,0.002 0.15605,0.0228 -0.001,0.009 -0.0154,0.008 -0.0231,0.0123 0.0649,0.0224 0.19095,0.0138 0.25189,0.0411 0.0111,0.005 -0.0418,0.007 -0.0332,0.0154 0.0908,0.0902 0.0538,-0.0251 0.0699,0.034 0.0253,0.0457 0.41824,0.0199 0.27017,0.12671 0.06,0.008 0.1214,0.008 0.17987,0.0233 0.008,0.002 -0.003,0.0166 1.2e-4,0.024 0.004,0.01 0.0109,0.0191 0.0201,0.0241 0.10604,0.0575 0.20756,0.0602 0.33013,0.0747 0,0.0364 -0.10303,0.0364 -0.10303,0 l 0,0 c -0.0657,-0.008 -0.13577,-1.8e-4 -0.19713,-0.0252 -0.0241,-0.01 0.0966,-0.0126 0.0738,-0.025 -0.0485,-0.0266 -0.11128,-0.008 -0.16421,-0.0245 -0.008,-0.002 0.009,-0.017 0.005,-0.0241 -0.0415,-0.074 -0.28787,0.011 -0.25017,-0.0473 0.0314,-0.008 0.0679,-0.004 0.0942,-0.0229 0.0103,-0.007 -0.0182,-0.0196 -0.0306,-0.0226 -0.0515,-0.0121 -0.1061,-0.008 -0.15737,-0.0217 -0.007,-0.002 -0.002,-0.0158 -0.007,-0.0208 -0.0517,-0.048 -0.0269,0.005 -0.0435,-0.0388 -0.034,-0.006 -0.068,-0.0118 -0.10205,-0.0177 0.012,-0.005 0.0444,-0.006 0.036,-0.0163 -0.0254,-0.0305 -0.18612,-0.023 -0.23498,-0.0565 -0.10326,-0.0252 -0.20456,-0.0622 -0.31358,-0.0626 0.17536,-0.0337 -0.38235,-0.0233 -0.0256,-0.0303 0,0.0189 -0.0535,0.0189 -0.0535,0 z"
         id="path5796"
         style="fill:#ff6600;fill-opacity:1;stroke:#e9921f;stroke-width:0.5;stroke-linecap:round;stroke-linejoin:round;stroke-miterlimit:4;stroke-opacity:1;stroke-dasharray:none" />
      <path
         transform="translate(0,680.31498)"
         inkscape:connector-curvature="0"
         d="m 432.8047,187.17427 c 0.0474,0.001 0.0949,0.001 0.14226,0.004 0.009,5.1e-4 0.0366,0.003 0.0275,0.006 -0.0264,0.007 -0.0781,-0.0193 -0.0812,0.008 -0.003,0.0264 0.053,0.005 0.0792,0.01 0.0169,0.003 0.0333,0.008 0.0499,0.0126 0.0322,0.005 0.0644,0.0107 0.0966,0.0161 -0.1991,0.0402 -0.0318,-0.005 0.0329,0.0391 0.0173,0.0118 -0.0682,0.006 -0.058,0.0244 0.0148,0.0267 0.0594,0.0157 0.0872,0.0283 0.016,0.007 0.0286,0.0206 0.0428,0.0309 0.0243,0.0109 0.0486,0.0217 0.0728,0.0326 0,0.0611 -0.17294,0.0611 -0.17294,0 l 0,0 c -0.0156,-0.0274 -0.0212,-0.0432 -0.0476,-0.0635 -0.0179,-0.0137 -0.0867,-0.0471 -0.0874,-0.0527 -0.002,-0.0129 0.0425,-0.0116 0.0331,-0.0207 -0.0181,-0.0176 -0.049,-0.0123 -0.0735,-0.0185 -0.0109,-0.005 -0.0257,-0.006 -0.0327,-0.0161 -0.009,-0.0128 0.0472,-0.0189 0.0363,-0.0225 -0.0328,-0.0106 -0.11293,9e-5 -0.14477,-0.0171 0,8.7e-4 -0.002,8.7e-4 -0.002,0 z"
         id="path5798"
         style="fill:#ff6600;fill-opacity:1;stroke:#e9921f;stroke-width:0.5;stroke-linecap:round;stroke-linejoin:round;stroke-miterlimit:4;stroke-opacity:1;stroke-dasharray:none" />
    </g>
  </g>
</svg>
