<?xml version="1.0" encoding="UTF-8" standalone="no"?>
<!-- Created with Inkscape (http://www.inkscape.org/) -->

<svg
   xmlns:dc="http://purl.org/dc/elements/1.1/"
   xmlns:cc="http://creativecommons.org/ns#"
   xmlns:rdf="http://www.w3.org/1999/02/22-rdf-syntax-ns#"
   xmlns:svg="http://www.w3.org/2000/svg"
   xmlns="http://www.w3.org/2000/svg"
   xmlns:sodipodi="http://sodipodi.sourceforge.net/DTD/sodipodi-0.dtd"
   xmlns:inkscape="http://www.inkscape.org/namespaces/inkscape"
   width="200"
   height="200"
   id="svg4105"
   version="1.1"
   inkscape:version="0.48.4 r9939"
   sodipodi:docname="New document 17">
  <defs
     id="defs4107" />
  <sodipodi:namedview
     id="base"
     pagecolor="#ffffff"
     bordercolor="#666666"
     borderopacity="1.0"
     inkscape:pageopacity="0.0"
     inkscape:pageshadow="2"
     inkscape:zoom="1"
     inkscape:cx="192"
     inkscape:cy="53"
     inkscape:document-units="px"
     inkscape:current-layer="layer1"
     showgrid="false"
     inkscape:window-width="1920"
     inkscape:window-height="1014"
     inkscape:window-x="0"
     inkscape:window-y="27"
     inkscape:window-maximized="1" />
  <metadata
     id="metadata4110">
    <rdf:RDF>
      <cc:Work
         rdf:about="">
        <dc:format>image/svg+xml</dc:format>
        <dc:type
           rdf:resource="http://purl.org/dc/dcmitype/StillImage" />
        <dc:title></dc:title>
      </cc:Work>
    </rdf:RDF>
  </metadata>
  <g
     inkscape:label="Layer 1"
     inkscape:groupmode="layer"
     id="layer1"
     transform="translate(0,-852.36218)">
    <g
       id="g5223-7-3"
       transform="matrix(-8.077452,0,0,8.077452,-2203.1348,-5762.0942)">
      <path
         transform="matrix(0.12218387,-4.247625e-4,4.247625e-4,0.12218387,-354.31725,782.60355)"
         d="m 597.14285,435.21933 c 0,31.55913 -23.66495,57.14286 -52.85714,57.14286 -29.1922,0 -52.85715,-25.58373 -52.85715,-57.14286 0,-31.55913 23.66495,-57.14286 52.85715,-57.14286 29.19219,0 52.85714,25.58373 52.85714,57.14286 z"
         sodipodi:ry="57.142857"
         sodipodi:rx="52.857143"
         sodipodi:cy="435.21933"
         sodipodi:cx="544.28571"
         id="path2987-8-5-4-6-4"
         style="fill:#fffb55;fill-opacity:1;fill-rule:nonzero;stroke:#404040;stroke-width:8.00813007;stroke-linecap:round;stroke-linejoin:round;stroke-miterlimit:4;stroke-opacity:1;stroke-dasharray:none;stroke-dashoffset:0"
         sodipodi:type="arc" />
      <path
         transform="matrix(-0.00839968,-0.17410056,-0.30124538,0.00555241,-154.24557,912.94409)"
         d="m 473.57142,437.71933 c 0,3.35316 -5.27664,6.07143 -11.78571,6.07143 -6.50907,0 -11.78572,-2.71827 -11.78572,-6.07143 0,-3.35316 5.27665,-6.07143 11.78572,-6.07143 6.50907,0 11.78571,2.71827 11.78571,6.07143 z"
         sodipodi:ry="6.0714288"
         sodipodi:rx="11.785714"
         sodipodi:cy="437.71933"
         sodipodi:cx="461.78571"
         id="path3849-68-1-0-7-3"
         style="fill:#ffffff;fill-opacity:1;fill-rule:nonzero;stroke:#404040;stroke-width:4.27065325;stroke-linecap:round;stroke-linejoin:round;stroke-miterlimit:4;stroke-opacity:1;stroke-dasharray:none;stroke-dashoffset:0"
         sodipodi:type="arc" />
      <path
         sodipodi:nodetypes="cc"
         inkscape:connector-curvature="0"
         id="path4025-3-4-3-9-0"
         d="m -290.54973,838.6787 c 2.81251,2.30497 3.73308,-1.13908 6.2741,0.45824"
         style="fill:none;stroke:#404040;stroke-width:0.97847021;stroke-linecap:round;stroke-linejoin:round;stroke-miterlimit:4;stroke-opacity:1;stroke-dasharray:none" />
      <path
         transform="matrix(-0.00839968,-0.17410056,-0.30124538,0.00555241,-149.00137,912.92579)"
         d="m 473.57142,437.71933 c 0,3.35316 -5.27664,6.07143 -11.78571,6.07143 -6.50907,0 -11.78572,-2.71827 -11.78572,-6.07143 0,-3.35316 5.27665,-6.07143 11.78572,-6.07143 6.50907,0 11.78571,2.71827 11.78571,6.07143 z"
         sodipodi:ry="6.0714288"
         sodipodi:rx="11.785714"
         sodipodi:cy="437.71933"
         sodipodi:cx="461.78571"
         id="path3849-3-8-5-8-5-0"
         style="fill:#ffffff;fill-opacity:1;fill-rule:nonzero;stroke:#404040;stroke-width:4.27065325;stroke-linecap:round;stroke-linejoin:round;stroke-miterlimit:4;stroke-opacity:1;stroke-dasharray:none;stroke-dashoffset:0"
         sodipodi:type="arc" />
      <path
         sodipodi:nodetypes="cc"
         inkscape:connector-curvature="0"
         id="path3759-9-9-5-8-0-4"
         d="m -288.13344,828.6658 c -0.13467,-1.5834 -1.30211,-4.24896 -2.54925,-5.21478"
         style="fill:none;stroke:#404040;stroke-width:0.97847021;stroke-linecap:round;stroke-linejoin:round;stroke-miterlimit:4;stroke-opacity:1;stroke-dasharray:none" />
      <path
         transform="matrix(-0.14351407,0.08185612,-0.12494887,-0.00883032,-170.1388,804.94991)"
         d="m 308.57142,628.79077 c 0,2.76143 -3.19797,5 -7.14286,5 -3.94489,0 -7.14286,-2.23857 -7.14286,-5 0,-2.76142 3.19797,-5 7.14286,-5 3.94489,0 7.14286,2.23858 7.14286,5 z"
         sodipodi:ry="5"
         sodipodi:rx="7.1428571"
         sodipodi:cy="628.79077"
         sodipodi:cx="301.42856"
         id="path4048-42-48-8-6-9-1"
         style="fill:#fffb55;fill-opacity:1;fill-rule:nonzero;stroke:#404040;stroke-width:11.64743137;stroke-linecap:round;stroke-linejoin:round;stroke-miterlimit:4;stroke-opacity:1;stroke-dasharray:none;stroke-dashoffset:0"
         sodipodi:type="arc" />
      <path
         sodipodi:nodetypes="cc"
         inkscape:connector-curvature="0"
         id="path3759-9-8-4-2-7-9-0"
         d="m -285.65321,828.4975 c 0.16655,-1.58036 1.38744,-4.22186 2.65379,-5.16236"
         style="fill:none;stroke:#404040;stroke-width:0.97847021;stroke-linecap:round;stroke-linejoin:round;stroke-miterlimit:4;stroke-opacity:1;stroke-dasharray:none" />
      <path
         transform="matrix(0.12555955,0.06970882,0.12313972,-0.01783102,-397.14118,814.05666)"
         d="m 308.57142,628.79077 c 0,2.76143 -3.19797,5 -7.14286,5 -3.94489,0 -7.14286,-2.23857 -7.14286,-5 0,-2.76142 3.19797,-5 7.14286,-5 3.94489,0 7.14286,2.23858 7.14286,5 z"
         sodipodi:ry="5"
         sodipodi:rx="7.1428571"
         sodipodi:cy="628.79077"
         sodipodi:cx="301.42856"
         id="path4048-42-4-0-5-5-4-4"
         style="fill:#fffb55;fill-opacity:1;fill-rule:nonzero;stroke:#404040;stroke-width:11.64743137;stroke-linecap:round;stroke-linejoin:round;stroke-miterlimit:4;stroke-opacity:1;stroke-dasharray:none;stroke-dashoffset:0"
         sodipodi:type="arc" />
      <path
         sodipodi:nodetypes="cc"
         inkscape:connector-curvature="0"
         id="path4025-5-4-9-14-5-2"
         d="m -293.31777,831.11166 c 3.16697,-1.45972 9.2087,-0.94049 11.18458,0.1528"
         style="fill:none;stroke:#404040;stroke-width:1.46770537;stroke-linecap:round;stroke-linejoin:round;stroke-miterlimit:4;stroke-opacity:1;stroke-dasharray:none" />
      <path
         sodipodi:nodetypes="csc"
         inkscape:connector-curvature="0"
         id="path4283-86-6-1-1-6"
         d="m -290.60725,829.97089 c -0.002,-0.50179 1.00781,-1.12176 2.68689,-1.1276 1.67907,-0.006 3.11177,0.46587 3.60372,1.24552"
         style="fill:#404040;fill-opacity:1;fill-rule:nonzero;stroke:#404040;stroke-width:0;stroke-linecap:round;stroke-linejoin:round;stroke-miterlimit:4;stroke-opacity:1;stroke-dasharray:none;stroke-dashoffset:0" />
      <path
         transform="matrix(-0.00299876,-0.06215549,-0.10754735,0.00198226,-241.48113,862.74455)"
         d="m 473.57142,437.71933 c 0,3.35316 -5.27664,6.07143 -11.78571,6.07143 -6.50907,0 -11.78572,-2.71827 -11.78572,-6.07143 0,-3.35316 5.27665,-6.07143 11.78572,-6.07143 6.50907,0 11.78571,2.71827 11.78571,6.07143 z"
         sodipodi:ry="6.0714288"
         sodipodi:rx="11.785714"
         sodipodi:cy="437.71933"
         sodipodi:cx="461.78571"
         id="path3849-68-0-65-50-4-6"
         style="fill:#404040;fill-opacity:1;fill-rule:nonzero;stroke:#404040;stroke-width:10.82323647;stroke-linecap:round;stroke-linejoin:round;stroke-miterlimit:4;stroke-opacity:1;stroke-dasharray:none;stroke-dashoffset:0"
         sodipodi:type="arc" />
      <path
         transform="matrix(-0.00299876,-0.06215549,-0.10754735,0.00198226,-236.23336,862.77569)"
         d="m 473.57142,437.71933 c 0,3.35316 -5.27664,6.07143 -11.78571,6.07143 -6.50907,0 -11.78572,-2.71827 -11.78572,-6.07143 0,-3.35316 5.27665,-6.07143 11.78572,-6.07143 6.50907,0 11.78571,2.71827 11.78571,6.07143 z"
         sodipodi:ry="6.0714288"
         sodipodi:rx="11.785714"
         sodipodi:cy="437.71933"
         sodipodi:cx="461.78571"
         id="path3849-68-0-6-8-92-6-2"
         style="fill:#404040;fill-opacity:1;fill-rule:nonzero;stroke:#404040;stroke-width:10.82323647;stroke-linecap:round;stroke-linejoin:round;stroke-miterlimit:4;stroke-opacity:1;stroke-dasharray:none;stroke-dashoffset:0"
         sodipodi:type="arc" />
      <path
         inkscape:transform-center-x="-1.0606602"
         sodipodi:nodetypes="cc"
         inkscape:connector-curvature="0"
         id="path5688-0-0-2-0"
         d="m -281.97823,833.57884 c 6.97893,5.85996 1.69693,8.21818 0,0 z"
         style="fill:#e3ba34;fill-opacity:1;stroke:#e3ba34;stroke-width:0.51600659;stroke-linecap:round;stroke-linejoin:round;stroke-miterlimit:4;stroke-opacity:1;stroke-dasharray:none" />
      <path
         inkscape:transform-center-y="-0.31284272"
         inkscape:transform-center-x="-0.64003399"
         sodipodi:nodetypes="cc"
         inkscape:connector-curvature="0"
         id="path5688-0-1-6-1-1"
         d="m -280.0893,833.10383 c 7.23468,0.88651 4.72105,4.77079 0,0 z"
         style="fill:#e3ba34;fill-opacity:1;stroke:#e3ba34;stroke-width:0.4127197;stroke-linecap:round;stroke-linejoin:round;stroke-miterlimit:4;stroke-opacity:1;stroke-dasharray:none" />
      <path
         inkscape:transform-center-y="-0.17044046"
         inkscape:transform-center-x="0.7705567"
         sodipodi:nodetypes="cc"
         inkscape:connector-curvature="0"
         id="path5688-0-1-5-3-0-3"
         d="m -290.57675,830.23641 c -6.63472,3.01778 -3.07083,5.96814 0,0 z"
         style="fill:#e3ba34;fill-opacity:1;stroke:#e3ba34;stroke-width:0.4127197;stroke-linecap:round;stroke-linejoin:round;stroke-miterlimit:4;stroke-opacity:1;stroke-dasharray:none" />
      <g
         transform="translate(8.8490727,14.865095)"
         id="g5217-6-4">
        <path
           sodipodi:type="arc"
           style="fill:#e2e0d9;fill-opacity:1;stroke:#404040;stroke-width:7.30472279;stroke-linecap:round;stroke-linejoin:round;stroke-miterlimit:4;stroke-opacity:1;stroke-dasharray:none"
           id="path5386-5-9-8-8-7-8"
           sodipodi:cx="452"
           sodipodi:cy="165.04724"
           sodipodi:rx="22"
           sodipodi:ry="8"
           d="m 474,165.04724 c 0,4.41828 -9.84974,8 -22,8 -12.15026,0 -22,-3.58172 -22,-8 0,-4.41828 9.84974,-8 22,-8 12.15026,0 22,3.58172 22,8 z"
           transform="matrix(0.19969717,0.09549735,0.0567705,-0.11871437,-395.06656,792.24126)" />
        <path
           style="fill:#e2e0d9;fill-opacity:1;stroke:#404040;stroke-width:1.24669933;stroke-linecap:butt;stroke-linejoin:miter;stroke-miterlimit:4;stroke-opacity:1;stroke-dasharray:none"
           d="m -299.84452,813.76284 5.44996,-8.21253 c 1.47583,-0.28461 5.5023,1.51006 6.41219,3.06639 l -3.0558,9.29226"
           id="path5388-7-0-0-6-3-1"
           inkscape:connector-curvature="0"
           sodipodi:nodetypes="cccc" />
        <path
           style="fill:#ffde87;fill-opacity:1;stroke:#7b7b7b;stroke-width:1.04187882;stroke-linecap:round;stroke-linejoin:round;stroke-miterlimit:4;stroke-opacity:1;stroke-dasharray:none"
           id="path5663-4-1-5-9-9"
           d="m -291.83321,814.20092 c 0.27425,0.15225 -0.0327,-0.004 -0.0194,-0.0784 0.011,-0.0586 0.0851,0.082 0.13923,0.0724 0.0597,-0.01 -0.13234,-0.17419 -0.0743,-0.16611 0.0796,0.0106 0.14251,0.0697 0.21407,0.10381 -0.15367,-0.10838 0.0919,-0.17707 0.0855,-0.19418 -0.0282,-0.0931 -0.11623,-0.14671 -0.15787,-0.23238 -0.0168,-0.0348 -0.0514,-0.11217 -0.0134,-0.12066 0.0824,-0.0184 0.15321,0.048 0.22977,0.0721 0.12884,0.2825 -0.2688,-0.3611 -0.14267,-0.36199 0.11267,-8.8e-4 0.19529,0.15627 0.30645,0.11972 0.0671,-0.0221 -0.0595,-0.12624 -0.0752,-0.19591 -0.0307,-0.13624 -0.007,-0.13006 0.0684,-0.22319 0.0713,0.0106 0.17056,0.0995 0.21431,0.0311 0.0469,-0.0736 -0.0692,-0.14416 -0.0925,-0.22203 -0.10117,-0.33784 -0.0219,-0.0533 0.10469,-0.21726 0.21709,-0.28167 -0.21656,-0.0303 0.13545,-0.19861 0.0533,-0.16085 -0.1748,-0.26958 -0.13163,-0.42106 0.0161,-0.0549 0.10433,-0.0167 0.15492,-0.0345 0.12957,-0.0458 0.22474,-0.13179 0.3152,-0.24069 -0.0751,-0.11738 -0.2295,-0.20146 -0.22575,-0.35218 10e-4,-0.0861 0.18148,0.0911 0.23419,0.022 0.0525,-0.0698 -0.0636,-0.14936 -0.0751,-0.2319 -0.007,-0.0501 0.029,-0.10607 0.0201,-0.15534 -0.0574,-0.31729 -0.20783,-0.20316 0.0506,-0.30563 0.30031,-0.0177 -0.0236,-0.32548 0.1221,-0.44076 0.25299,-0.1999 0.23089,0.22206 0.18673,-0.21884 0.0534,-0.0719 -0.11861,-0.21166 -0.17152,-0.13981 l 0,0 c 0.0159,0.075 0.0792,0.14968 0.0479,0.22495 -0.0253,0.0559 -0.11253,0.0218 -0.16336,0.0519 -0.22182,0.13135 0.0158,0.31527 -0.036,0.51093 -0.0491,0.018 -0.0976,0.043 -0.14783,0.054 -0.0624,0.0139 -0.20487,-0.0429 -0.18746,0.0197 0.0495,0.17738 0.20796,0.28398 0.31191,0.42596 -0.0604,0.007 -0.16483,-0.0416 -0.18103,0.023 -0.0774,0.30889 0.40182,0.29623 -0.13458,0.22728 0.0349,0.0844 0.0702,0.16877 0.10522,0.25313 -0.0541,0.0112 -0.17031,-0.0231 -0.16247,0.0337 0.0192,0.13975 0.17915,0.20357 0.21354,0.33808 0.011,0.0407 -0.0687,0.0741 -0.10875,0.0723 -0.10785,-0.006 -0.26861,-0.20618 -0.30505,-0.0906 -0.0455,0.14462 0.15095,0.22686 0.2264,0.34037 -0.22225,0.11153 -0.007,0.0199 -0.28534,0.0765 -0.0452,0.008 -0.13974,-0.003 -0.13327,0.0437 0.0162,0.12088 0.1769,0.17222 0.17901,0.29602 0.002,0.0853 -0.26483,-0.098 -0.22775,0.10464 0.0357,0.076 0.14265,0.14332 0.10649,0.22796 -0.0295,0.0679 -0.12935,-0.0411 -0.19484,-0.0216 -0.0314,0.01 -0.0584,0.0643 -0.0484,0.0952 0.0345,0.10344 0.15427,0.15719 0.16934,0.268 0.0131,0.0977 -0.30952,-0.0627 -0.27921,0.0182 0.016,0.0514 0.0484,0.0979 0.0476,0.15405 -0.001,0.0881 -0.15023,0.0904 -0.14983,0.0915 0.0221,0.0939 0.11305,0.14417 0.1578,0.22556 0.0175,0.0319 0.0114,0.0763 0.0265,0.11051 0.0224,0.0525 0.0561,0.0979 0.0839,0.14686 -0.12059,-0.0763 -0.22207,-0.19761 -0.36296,-0.22641 -0.0778,-0.016 0.10864,0.11748 0.1546,0.18397 0.0107,0.0153 0.0319,0.0622 0.0138,0.0584 -0.0598,-0.0126 -0.10081,-0.0695 -0.15884,-0.0875 -0.0118,-0.003 0.003,0.0255 0.004,0.0385 -0.0191,-0.008 -0.0391,-0.0129 -0.0583,-0.0205 -0.0224,0.0318 0.0518,0.0925 0.0748,0.0609 z"
           inkscape:connector-curvature="0" />
        <path
           sodipodi:type="arc"
           style="fill:#9a937b;fill-opacity:1;stroke:#404040;stroke-width:9.71057796;stroke-linecap:round;stroke-linejoin:round;stroke-miterlimit:4;stroke-opacity:1;stroke-dasharray:none"
           id="path5386-5-9-1-4-2-4"
           sodipodi:cx="452"
           sodipodi:cy="165.04724"
           sodipodi:rx="22"
           sodipodi:ry="7.8161187"
           d="m 474,165.04724 c 0,4.31672 -9.84974,7.81612 -22,7.81612 -12.15026,0 -22,-3.4994 -22,-7.81612 0,-4.31672 9.84974,-7.81612 22,-7.81612 12.15026,0 22,3.4994 22,7.81612 z"
           transform="matrix(0.14614229,0.07029326,0.04804587,-0.0709646,-365.05592,786.7856)" />
      </g>
    </g>
  </g>
</svg>
