<?xml version="1.0" encoding="UTF-8" standalone="no"?>
<!-- Created with Inkscape (http://www.inkscape.org/) -->

<svg
   xmlns:dc="http://purl.org/dc/elements/1.1/"
   xmlns:cc="http://creativecommons.org/ns#"
   xmlns:rdf="http://www.w3.org/1999/02/22-rdf-syntax-ns#"
   xmlns:svg="http://www.w3.org/2000/svg"
   xmlns="http://www.w3.org/2000/svg"
   xmlns:sodipodi="http://sodipodi.sourceforge.net/DTD/sodipodi-0.dtd"
   xmlns:inkscape="http://www.inkscape.org/namespaces/inkscape"
   width="200"
   height="200"
   id="svg3549"
   version="1.1"
   inkscape:version="0.48.4 r9939"
   sodipodi:docname="New document 11">
  <defs
     id="defs3551" />
  <sodipodi:namedview
     id="base"
     pagecolor="#ffffff"
     bordercolor="#666666"
     borderopacity="1.0"
     inkscape:pageopacity="0.0"
     inkscape:pageshadow="2"
     inkscape:zoom="1"
     inkscape:cx="281"
     inkscape:cy="288"
     inkscape:document-units="px"
     inkscape:current-layer="layer1"
     showgrid="false"
     inkscape:window-width="1920"
     inkscape:window-height="1014"
     inkscape:window-x="0"
     inkscape:window-y="27"
     inkscape:window-maximized="1" />
  <metadata
     id="metadata3554">
    <rdf:RDF>
      <cc:Work
         rdf:about="">
        <dc:format>image/svg+xml</dc:format>
        <dc:type
           rdf:resource="http://purl.org/dc/dcmitype/StillImage" />
        <dc:title></dc:title>
      </cc:Work>
    </rdf:RDF>
  </metadata>
  <g
     inkscape:label="Layer 1"
     inkscape:groupmode="layer"
     id="layer1"
     transform="translate(0,-852.36218)">
    <g
       id="g4342"
       transform="matrix(1.3513457,0,0,1.6624222,-346.38936,-278.91128)">
      <path
         sodipodi:nodetypes="ccccccccccccccccc"
         inkscape:connector-curvature="0"
         id="path5005"
         d="m 390.72146,763.24514 c -10.51751,-5.48516 -21.54516,-7.76091 -24.88822,-6.16773 -3.10948,17.7576 -8.47928,27.71827 -12.06323,34.12934 -2.11442,-8.83272 -3.63771,-13.25171 -12.18254,-18.53237 -28.05499,16.62739 -34.6937,16.13658 -38.50003,17.26438 3.40644,-4.97377 6.71928,-10.13476 7.65949,-20.04099 -21.6421,0.93656 -31.74578,-4.53711 -42.38402,-9.71381 4.4937,-0.6562 17.44874,-2.32869 23.0147,-9.80988 -9.65672,-6.56885 -16.81878,-16.8797 -21.44003,-31.00177 2.5131,1.78054 10.46867,6.15298 24.88821,6.16773 1.93308,-10.68045 2.86806,-21.02819 12.06323,-34.12933 2.09973,9.44598 6.30737,15.37878 12.18254,18.53237 11.23337,-5.62147 13.72171,-10.51418 38.50003,-17.26439 -3.26128,4.18046 -6.75861,11.84969 -7.6595,20.04099 13.60599,0.62786 27.52652,2.82842 42.38402,9.71381 -9.59213,0.22636 -17.97486,2.15371 -23.0147,9.80987 10.49458,8.66911 16.7767,17.99706 21.44005,31.00178 z"
         inkscape:transform-center-y="59.972711"
         inkscape:transform-center-x="-75.091078"
         style="fill:#ffd876;fill-opacity:1;stroke:#ffbf1c;stroke-width:2.46438718;stroke-linecap:round;stroke-linejoin:round;stroke-miterlimit:4;stroke-opacity:1" />
      <path
         transform="matrix(0.5200391,0,0,0.58178121,491.19129,514.55843)"
         d="m -241.42857,389.19009 c 0,27.61424 -30.38067,50 -67.85714,50 -37.47646,0 -67.85714,-22.38576 -67.85714,-50 0,-27.61423 30.38068,-50 67.85714,-50 37.47647,0 67.85714,22.38577 67.85714,50 z"
         sodipodi:ry="50"
         sodipodi:rx="67.85714"
         sodipodi:cy="389.19009"
         sodipodi:cx="-309.28571"
         id="path4762"
         style="fill:#ffbf1c;fill-opacity:1;stroke:#ffe8ae;stroke-width:3.64125681;stroke-miterlimit:4;stroke-opacity:1;stroke-dasharray:none"
         sodipodi:type="arc" />
      <path
         sodipodi:nodetypes="cc"
         inkscape:connector-curvature="0"
         id="path3906-0"
         d="m 312.00845,735.11869 c 0.99618,-4.04469 14.23021,-4.93095 15.46301,-0.33601"
         style="fill:none;stroke:#ffe8ae;stroke-width:3;stroke-linecap:round;stroke-linejoin:round;stroke-miterlimit:4;stroke-opacity:1;stroke-dasharray:none" />
      <path
         sodipodi:nodetypes="cc"
         inkscape:connector-curvature="0"
         id="path3906-0-6"
         d="m 354.2459,735.52888 c -0.99618,-4.0447 -14.23021,-4.93096 -15.46302,-0.33601"
         style="fill:none;stroke:#ffe8ae;stroke-width:3;stroke-linecap:round;stroke-linejoin:round;stroke-miterlimit:4;stroke-opacity:1;stroke-dasharray:none" />
      <path
         sodipodi:nodetypes="cc"
         inkscape:connector-curvature="0"
         id="path3906-0-5"
         d="m 333.94463,741.66389 c 4.0447,0.99621 4.29198,6.15256 -0.13607,5.54943"
         style="fill:none;stroke:#ffe8ae;stroke-width:3;stroke-linecap:round;stroke-linejoin:round;stroke-miterlimit:4;stroke-opacity:1;stroke-dasharray:none" />
    </g>
  </g>
</svg>
